<?xml version="1.0"?>
<svg xmlns:rdf="http://www.w3.org/1999/02/22-rdf-syntax-ns#" xmlns="http://www.w3.org/2000/svg" xmlns:cc="http://web.resource.org/cc/" xmlns:dc="http://purl.org/dc/elements/1.1/" xmlns:svg="http://www.w3.org/2000/svg" id="svg2" viewBox="0 0 842.35 396.63" version="1.0">
  <g id="layer1" transform="translate(73.49 -351.94)">
    <path id="path2160" d="m-11.429 352.36s52.211 38.17 83.639 46.74c31.43 8.57 103.24 17.28 191.81 31.57 88.57 14.28 210.27 47.41 210.27 47.41s8.57-8.57 51.42-20c42.86-11.43 75.04 7.06 120.76-4.37 45.71-11.43 81.54-25.01 93.53-32.78 16.66-10.78 39.99 6.38 22.86 17.15-19.75 12.41-54.39 34.18-94.29 42.85-47.46 10.33-111.43 0-128.57 5.72-17.14 5.71-41.13 18.81-41.13 18.81s-7.44 29.76 1.13 49.76 57.14 77.14 57.14 77.14 2.86 37.15 17.15 54.29c14.28 17.14 24.29 30.7 37.14 40 8.39 6.07 0.02 28.55-14.29 20-13.07-7.82-37.14-20-45.71-31.43s-22.86-54.29-22.86-54.29-42.86-2.85-77.14-25.71c-34.29-22.86-52.45-68-52.45-68s-2.57-14-3.29-14.01c-0.06-0.01-1.31 4.98 0.84 14.06-33.03-1.63-116.6-4.58-143.93-12.62-48.57-14.29-129.74-42.29-129.74-42.29l62.85-40s-37.14 25.72-60 34.29c-22.85 8.57-45.71 8.57-57.139 8.57-11.428 0-22.303 15.94-54.285 25.71-22.046 6.74-37.298 29.16-54.286 37.15-7.528 3.54-25.714 6.43-31.429 0-9.134-24.21 14.379-23.83 25.715-28.57 23.571-12.15 57.143-28.58 77.143-45.72s41.693-43.41 41.693-43.41l-24.551-9.74s-28.558 22.8-48.06 13.15c-21.582-10.68-11.871-52.13 1.0823-57.71 13.118-5.66-13.022-59.43-13.022-53.72z"/>
    <path id="path2162" d="m551.97 628.42s59.62 28.2 80 39.25c8.31 4.51 10.87 26.18-2.86 22.86-15.82-3.83-62.07-22.32-62.07-22.32l-15.07-39.79z"/>
    <path id="path2166" d="m56.745 524.46c-12.037 30.95-31.821 49.7-41.269 61.91-10.317 13.32 15.876 21.29 24.474 10.97s17.329-52.45 39.149-55.68c11.607-1.72 24.071 12.03 36.111 6.88 12.04-5.16 36.37-23.47 36.37-23.47-8.78-2.74-27.42-9.46-34.74-12.16-11.5 0.63-27.223 4.38-41.18 4.67-9.868-2.06-14.536 2.23-18.915 6.88z"/>
  </g>
  <metadata>
    <rdf:RDF>
      <cc:Work>
        <dc:format>image/svg+xml</dc:format>
        <dc:type rdf:resource="http://purl.org/dc/dcmitype/StillImage"/>
        <cc:license rdf:resource="http://creativecommons.org/licenses/publicdomain/"/>
        <dc:publisher>
          <cc:Agent rdf:about="http://openclipart.org/">
            <dc:title>Openclipart</dc:title>
          </cc:Agent>
        </dc:publisher>
        <dc:title>Leaping cat</dc:title>
        <dc:date>2006-11-07T05:46:37</dc:date>
        <dc:description>hand trace of jumping black cat&#xD;\nand test of non-English tags</dc:description>
        <dc:source>http://openclipart.org/detail/1323/leaping-cat-by-zeimusu</dc:source>
        <dc:creator>
          <cc:Agent>
            <dc:title>zeimusu</dc:title>
          </cc:Agent>
        </dc:creator>
        <dc:subject>
          <rdf:Bag>
            <rdf:li>animal</rdf:li>
            <rdf:li>black</rdf:li>
            <rdf:li>cat</rdf:li>
            <rdf:li>clip art</rdf:li>
            <rdf:li>clipart</rdf:li>
            <rdf:li>feline</rdf:li>
            <rdf:li>image</rdf:li>
            <rdf:li>jump</rdf:li>
            <rdf:li>media</rdf:li>
            <rdf:li>pet</rdf:li>
            <rdf:li>png</rdf:li>
            <rdf:li>public domain</rdf:li>
            <rdf:li>silhouette</rdf:li>
            <rdf:li>svg</rdf:li>
          </rdf:Bag>
        </dc:subject>
      </cc:Work>
      <cc:License rdf:about="http://creativecommons.org/licenses/publicdomain/">
        <cc:permits rdf:resource="http://creativecommons.org/ns#Reproduction"/>
        <cc:permits rdf:resource="http://creativecommons.org/ns#Distribution"/>
        <cc:permits rdf:resource="http://creativecommons.org/ns#DerivativeWorks"/>
      </cc:License>
    </rdf:RDF>
  </metadata>
</svg>
